<?xml version="1.0" encoding="iso-8859-1"?>
<!-- Generator: Adobe Illustrator 19.0.0, SVG Export Plug-In . SVG Version: 6.00 Build 0)  -->
<svg version="1.1" id="Layer_1" xmlns="http://www.w3.org/2000/svg" xmlns:xlink="http://www.w3.org/1999/xlink" x="0px" y="0px"
	 viewBox="0 0 465 465" style="enable-background:new 0 0 465 465;" xml:space="preserve">
<g>
	<g>
		<path style="fill:#E7ECED;" d="M268.026,397.5v41.447c0,6.513-4.855,11.842-10.895,11.842h-49.263
			c-6.039,0-10.895-5.329-10.895-11.842V397.5H268.026z"/>
		<rect x="196.974" y="261.316" style="fill:#FFD248;" width="71.053" height="136.184"/>
		<polygon style="fill:#31C0D8;" points="114.079,255.395 114.079,279.079 60.79,279.079 60.79,231.71 114.079,231.71 		"/>
		<rect x="60.79" y="178.421" style="fill:#31C0D8;" width="53.289" height="53.29"/>
		<path style="fill:#31C0D8;" d="M60.79,178.421v53.29H7.5v-41.447c0-6.513,5.329-11.842,11.842-11.842H60.79V178.421z"/>
		<rect x="7.5" y="231.71" style="fill:#31C0D8;" width="53.29" height="47.368"/>
		<rect x="7.5" y="326.447" style="fill:#31C0D8;" width="53.29" height="53.29"/>
		<rect x="7.5" y="279.079" style="fill:#31C0D8;" width="53.29" height="47.368"/>
		<polygon style="fill:#31C0D8;" points="114.079,302.763 114.079,326.447 60.79,326.447 60.79,279.079 114.079,279.079 		"/>
		<path style="fill:#31C0D8;" d="M114.079,326.447v41.447c0,6.513-5.329,11.842-11.842,11.842H60.79v-53.29h53.289V326.447z"/>
		<rect x="404.211" y="279.079" style="fill:#31C0D8;" width="53.29" height="47.368"/>
		<rect x="404.211" y="326.447" style="fill:#31C0D8;" width="53.29" height="53.29"/>
		<rect x="404.211" y="231.71" style="fill:#31C0D8;" width="53.29" height="47.368"/>
		<path style="fill:#31C0D8;" d="M457.5,190.263v41.447h-53.289v-53.29h41.447C452.171,178.421,457.5,183.75,457.5,190.263z"/>
		<rect x="350.921" y="178.421" style="fill:#31C0D8;" width="53.289" height="53.29"/>
		<polygon style="fill:#31C0D8;" points="404.211,231.71 404.211,279.079 350.921,279.079 350.921,255.395 350.921,231.71 		"/>
		<polygon style="fill:#31C0D8;" points="404.211,279.079 404.211,326.447 350.921,326.447 350.921,302.763 350.921,279.079 		"/>
		<path style="fill:#31C0D8;" d="M404.211,326.447v53.29h-41.447c-6.513,0-11.842-5.329-11.842-11.842v-41.447h53.289V326.447z"/>
		<polygon style="fill:#8A9095;" points="155.526,255.395 155.526,302.763 114.079,302.763 114.079,279.079 114.079,255.395 		"/>
		<polygon style="fill:#8A9095;" points="350.921,279.079 350.921,302.763 309.474,302.763 309.474,255.395 350.921,255.395 		"/>
		<path style="fill:#E7ECED;" d="M143.684,48.158h177.632c0,36.355-21.908,67.618-53.289,81.355V172.5h-71.053v-42.987
			C165.592,115.776,143.684,84.513,143.684,48.158z"/>
		<path style="fill:#AFB6BB;" d="M309.474,172.5v213.158c0,6.513-5.329,11.842-11.842,11.842h-29.605V261.316h-71.053V397.5h-29.605
			c-6.513,0-11.842-5.329-11.842-11.842V172.5H309.474z"/>
	</g>
	<g>
		<path d="M445.658,170.921H343.421v76.974h-26.447V165h-41.447v-30.721c32.532-16.269,53.29-49.548,53.29-86.121v-7.5H240V6.71h-15
			v33.947h-88.816v7.5c0,36.573,20.758,69.853,53.29,86.121V165h-41.447v82.896H121.58v-76.974H19.342
			C8.677,170.921,0,179.598,0,190.263v196.974h102.237c10.666,0,19.342-8.677,19.342-19.342v-57.632h26.447v75.395
			c0,10.665,8.677,19.342,19.342,19.342h22.105v33.947c0,10.666,8.252,19.343,18.395,19.343h49.264
			c10.143,0,18.395-8.677,18.395-19.343V405h22.105c10.665,0,19.342-8.677,19.342-19.342v-75.395h26.447v57.632
			c0,10.665,8.677,19.342,19.342,19.342H465V190.263C465,179.598,456.323,170.921,445.658,170.921z M450,190.263v33.947h-38.29
			v-38.289h33.947C448.012,185.921,450,187.91,450,190.263z M358.421,286.579h38.29v32.368h-38.29V286.579z M358.421,271.579V239.21
			h38.29v32.368h-38.29V271.579z M411.71,286.579H450v32.368h-38.29V286.579z M411.71,271.579V239.21H450v32.368h-38.29V271.579z
			 M396.71,185.921v38.289h-38.29v-38.289H396.71z M204.474,138.552H232.5v-15h-30.441l-2.078-0.909
			c-15.371-6.729-27.921-17.83-36.444-31.459h98.568v-15H156.189c-2.411-6.541-4.001-13.43-4.659-20.526h161.94
			c-2.71,29.238-21.124,55.022-48.451,66.985l-4.492,1.966V165h-56.053V138.552z M106.579,271.579H68.29V239.21h38.29
			L106.579,271.579L106.579,271.579z M53.29,271.579H15V239.21h38.29V271.579z M53.29,286.579v32.368H15v-32.368H53.29z
			 M68.29,286.579h38.29v32.368H68.29V286.579z M106.579,224.21H68.29v-38.289h38.29L106.579,224.21L106.579,224.21z
			 M19.342,185.921H53.29v38.289H15v-33.947C15,187.91,16.988,185.921,19.342,185.921z M15,333.947h38.29v38.29H15V333.947z
			 M102.237,372.237H68.29v-38.29h38.29v33.948C106.579,370.249,104.591,372.237,102.237,372.237z M121.579,295.263v-32.368h26.447
			v32.368H121.579z M257.132,443.29h-49.264c-1.84,0-3.395-1.988-3.395-4.343V405h56.053v33.947
			C260.526,441.301,258.972,443.29,257.132,443.29z M240,338.29v-69.474h20.526V390h-56.053V268.816H225v69.474H240z
			 M301.974,385.658c0,2.354-1.988,4.342-4.342,4.342h-22.105V253.816h-86.053V390h-22.105c-2.354,0-4.342-1.988-4.342-4.342V180
			h138.947V385.658z M316.974,295.263v-32.368h26.447v32.368H316.974z M358.421,367.895v-33.948h38.29v38.29h-33.947
			C360.409,372.237,358.421,370.249,358.421,367.895z M411.71,372.237v-38.29H450v38.29H411.71z"/>
		<rect x="185.132" y="212.369" width="94.736" height="15"/>
	</g>
</g>
<g>
</g>
<g>
</g>
<g>
</g>
<g>
</g>
<g>
</g>
<g>
</g>
<g>
</g>
<g>
</g>
<g>
</g>
<g>
</g>
<g>
</g>
<g>
</g>
<g>
</g>
<g>
</g>
<g>
</g>
</svg>
