<?xml version="1.0" encoding="iso-8859-1"?>
<!-- Generator: Adobe Illustrator 19.0.0, SVG Export Plug-In . SVG Version: 6.00 Build 0)  -->
<svg version="1.1" id="Capa_1" xmlns="http://www.w3.org/2000/svg" xmlns:xlink="http://www.w3.org/1999/xlink" x="0px" y="0px"
	 viewBox="0 0 511 511" style="enable-background:new 0 0 511 511;" xml:space="preserve">
<path d="M487.5,136h-112c-12.958,0-23.5,10.542-23.5,23.5V264h-17v-48.5c0-8.547-6.953-15.5-15.5-15.5H263v-17.297
	c23.236-1.675,45.187-11.072,62.468-26.935c19.013-17.451,30.768-41.162,33.101-66.766c0.396-4.357-1.068-8.71-4.019-11.941
	C351.614,73.845,347.438,72,343.093,72h-44.486L263,36.394V7.5c0-4.142-3.358-7.5-7.5-7.5S248,3.358,248,7.5v28.894L212.394,72
	h-44.486c-4.345,0-8.521,1.845-11.458,5.061c-2.951,3.231-4.415,7.584-4.019,11.941c2.333,25.604,14.088,49.315,33.101,66.766
	c17.282,15.863,39.232,25.26,62.468,26.935V200h-56.5c-8.547,0-15.5,6.953-15.5,15.5V264h-17V159.5c0-12.958-10.542-23.5-23.5-23.5
	h-112C10.542,136,0,146.542,0,159.5v224C0,396.458,10.542,407,23.5,407h112c12.958,0,23.5-10.542,23.5-23.5V279h17v112.5
	c0,12.958,10.542,23.5,23.5,23.5H224v17h-0.5c-8.547,0-15.5,6.953-15.5,15.5v48c0,8.547,6.953,15.5,15.5,15.5h64
	c8.547,0,15.5-6.953,15.5-15.5v-48c0-8.547-6.953-15.5-15.5-15.5H287v-17h24.5c12.958,0,23.5-10.542,23.5-23.5V279h17v104.5
	c0,12.958,10.542,23.5,23.5,23.5h112c12.958,0,23.5-10.542,23.5-23.5v-224C511,146.542,500.458,136,487.5,136z M255.5,50.106
	L277.394,72h-43.787L255.5,50.106z M167.369,87.642c-0.016-0.178,0.037-0.335,0.157-0.467C167.686,87,167.847,87,167.907,87h175.186
	c0.061,0,0.221,0,0.381,0.175c0.121,0.132,0.173,0.289,0.157,0.467c-1.993,21.882-12.046,42.151-28.305,57.075
	C298.968,159.731,277.721,168,255.5,168s-43.468-8.269-59.826-23.283C179.415,129.793,169.362,109.523,167.369,87.642z M15,279h57
	v49H15V279z M15,264v-49h57v49H15z M87,215h57v49H87V215z M144,159.5V200H87v-48.5c0-0.169-0.014-0.334-0.025-0.5H135.5
	C140.187,151,144,154.813,144,159.5z M23.5,151h48.525c-0.011,0.166-0.025,0.331-0.025,0.5V200H15v-40.5
	C15,154.813,18.813,151,23.5,151z M15,383.5V343h57v48.5c0,0.169,0.014,0.334,0.025,0.5H23.5C18.813,392,15,388.187,15,383.5z
	 M135.5,392H86.975c0.011-0.166,0.025-0.331,0.025-0.5V343h57v40.5C144,388.187,140.187,392,135.5,392z M144,328H87v-49h57V328z
	 M288,400h-65V263.5c0-9.098,7.402-16.5,16.5-16.5h32c9.098,0,16.5,7.402,16.5,16.5V400z M288,447.5v48c0,0.276-0.224,0.5-0.5,0.5
	H263v-24.5c0-4.142-3.358-7.5-7.5-7.5s-7.5,3.358-7.5,7.5V496h-24.5c-0.276,0-0.5-0.224-0.5-0.5v-48c0-0.275,0.224-0.5,0.5-0.5h64
	C287.776,447,288,447.225,288,447.5z M272,432h-33v-17h33V432z M320,391.5c0,4.687-3.813,8.5-8.5,8.5H303V263.5
	c0-17.369-14.131-31.5-31.5-31.5h-32c-17.369,0-31.5,14.131-31.5,31.5V400h-8.5c-4.687,0-8.5-3.813-8.5-8.5v-176
	c0-0.275,0.224-0.5,0.5-0.5h128c0.276,0,0.5,0.225,0.5,0.5V391.5z M496,279v49h-57v-49H496z M439,264v-49h57v49H439z M496,159.5V200
	h-57v-48.5c0-0.169-0.014-0.334-0.025-0.5H487.5C492.187,151,496,154.813,496,159.5z M375.5,151h48.525
	c-0.011,0.166-0.025,0.331-0.025,0.5V200h-57v-40.5C367,154.813,370.813,151,375.5,151z M367,215h57v49h-57V215z M424,279v49h-57
	v-49H424z M367,383.5V343h57v48.5c0,0.169,0.014,0.334,0.025,0.5H375.5C370.813,392,367,388.187,367,383.5z M487.5,392h-48.525
	c0.011-0.166,0.025-0.331,0.025-0.5V343h57v40.5C496,388.187,492.187,392,487.5,392z"/>
<g>
</g>
<g>
</g>
<g>
</g>
<g>
</g>
<g>
</g>
<g>
</g>
<g>
</g>
<g>
</g>
<g>
</g>
<g>
</g>
<g>
</g>
<g>
</g>
<g>
</g>
<g>
</g>
<g>
</g>
</svg>
